<?xml version="1.0" encoding="utf-8"?>
<svg id="master-artboard" viewBox="0 0 658.5 493.5" version="1.1" xmlns="http://www.w3.org/2000/svg" x="0px" y="0px" style="enable-background:new 0 0 658.5 493.5;" width="658.5px" height="493.5px">

<linearGradient id="SVGID_1_" gradientUnits="userSpaceOnUse" x1="329.2336" y1="515.9647" x2="329.2336" y2="-22.0405">
		<stop offset="0" style="stop-color:#E6FFFF"/>
		<stop offset="1" style="stop-color:#7DCCFF"/>
	</linearGradient><path d="M 0 0 H 658.5 V 493.5 H 0 V 0 Z" class="st0" style="fill: url('#SVGID_1_'); fill-opacity: 0;" transform="matrix(1, 0, 0, 1, 0, 0)"/>

<g transform="matrix(1, 0, 0, 1, 0, 0)">
		<g>
			<path class="st2" d="M330.4,391.8c-63.6,0-113.2-10.2-147.3-30.2c-38.1-22.3-57.4-57-57.4-103.1c0-53.2,22.1-107,60.5-147.7&#10;&#9;&#9;&#9;&#9;c19-20.1,40.9-36,64.9-47.1C276.5,52,302.9,46,329.8,46c54.2,0,105.3,22.8,143.9,64.2c18.5,19.9,33,42.9,43.2,68.4&#10;&#9;&#9;&#9;&#9;c10.5,26.3,15.8,54,15.8,82.2c0,44.4-18.5,78.1-55,100.1C443.8,381.4,394.3,391.8,330.4,391.8z" style="fill: rgb(254, 1, 0);"/>
			<path class="st3" d="M329.8,48.5c111.6,0,200.4,98.4,200.4,212.4c0,90-76.8,128.4-199.8,128.4c-120,0-202.2-36-202.2-130.8&#10;&#9;&#9;&#9;&#9;C128.2,149.3,220.6,48.5,329.8,48.5 M329.8,43.5c-27.3,0-54.1,6-79.7,17.9c-24.4,11.3-46.5,27.4-65.7,47.7&#10;&#9;&#9;&#9;&#9;c-19,20.1-34.1,43.2-44.7,68.6c-11,26.2-16.5,53.4-16.5,80.8c0,47.1,19.7,82.5,58.6,105.3c34.6,20.3,84.6,30.5,148.6,30.5&#10;&#9;&#9;&#9;&#9;c64.3,0,114.3-10.5,148.6-31.2c37.3-22.5,56.2-56.9,56.2-102.2c0-28.6-5.4-56.5-16-83.1c-10.3-25.8-25-49.1-43.7-69.2&#10;&#9;&#9;&#9;&#9;c-18.9-20.3-40.8-36.2-65.2-47.4C384.8,49.4,357.7,43.5,329.8,43.5L329.8,43.5z" style="fill: rgb(63, 4, 6);"/>
		</g>
		<linearGradient id="SVGID_2_" gradientUnits="userSpaceOnUse" x1="98.7854" y1="324.3174" x2="575.7466" y2="324.3174">
			<stop offset="0" style="stop-color:#FF0000"/>
			<stop offset="1" style="stop-color:#CC2727"/>
		</linearGradient>
		<path class="st4" d="M330.7,390.5c108.7,0,181.3-30,196.7-99.1c-11.6,18.2-24.3,27-34.8,31.1c-36.5-26.6-96-44-163.1-44&#10;&#9;&#9;&#9;c-67.4,0-127.1,17.5-163.6,44.3c-13.2-10.6-27.3-29.9-37.4-64.7c0,0.5,0,1.1,0,1.6C128.5,354.5,210.8,390.5,330.7,390.5z" style="fill: url('#SVGID_2_');"/>
		<g>
			<path class="st5" d="M317.6,447.5c-10.9,0-27.4-0.9-44.5-5.4c-20.5-5.3-36.8-14.3-48.3-26.8c-15.5-16.8-22.2-39.6-19.9-67.8&#10;&#9;&#9;&#9;&#9;c0-0.6,0.3-1.1,0.7-1.5c0.5-0.5,13-13.5,34.9-24.2c19.2-9.4,50.2-20.6,88.8-20.6c26.7,0,53.1,5.4,78.5,16.2&#10;&#9;&#9;&#9;&#9;c1.3,0.6,2.7,1.1,4.2,1.7c15.1,6.3,33.9,14.1,42.4,27.2c0.2,0.2,0.3,0.5,0.3,0.8c0.4,1.4,8.4,35.4-13.8,63.8&#10;&#9;&#9;&#9;&#9;c-18.9,24.1-53.4,36.3-102.6,36.3c-2.7,0-5.5,0-8.3-0.1C329,447.1,324.5,447.5,317.6,447.5z" style="fill: rgb(250, 218, 133);"/>
			<path class="st3" d="M329.3,303.7c23.8,0,50.1,4.4,77.5,16c15.5,6.5,36.6,14.4,45.4,28c0,0,23.8,96.9-114,96.9&#10;&#9;&#9;&#9;&#9;c-2.7,0-5.5,0-8.4-0.1c0,0-4.7,0.5-12.3,0.5c-32.4,0-117.3-8.4-110.1-97.3c0,0,12.5-13.1,34.2-23.7&#10;&#9;&#9;&#9;&#9;C262.7,313.8,293.2,303.7,329.3,303.7 M329.3,298.7c-39,0-70.4,11.3-89.9,20.8c-22.2,10.9-35.1,24.1-35.6,24.7&#10;&#9;&#9;&#9;&#9;c-0.8,0.8-1.3,1.9-1.4,3.1c-2.3,28.9,4.6,52.4,20.6,69.7c11.8,12.8,28.5,22.1,49.5,27.5c17.3,4.5,34.1,5.4,45.1,5.4&#10;&#9;&#9;&#9;&#9;c6.7,0,11.2-0.3,12.4-0.5c2.8,0.1,5.5,0.1,8.2,0.1c50,0,85.2-12.5,104.6-37.2c23-29.3,14.7-64.4,14.3-65.9&#10;&#9;&#9;&#9;&#9;c-0.1-0.5-0.4-1.1-0.7-1.5c-8.9-13.7-28.1-21.7-43.5-28.1c-1.4-0.6-2.8-1.2-4.1-1.7C383,304.3,356.3,298.7,329.3,298.7&#10;&#9;&#9;&#9;&#9;L329.3,298.7z" style="fill: rgb(63, 4, 6);"/>
		</g>
		<path class="st6" d="M298.6,356.6c0,19.7-1.9,34.5-10.2,34.5c-8.3,0-10.2-14.8-10.2-34.5s1.9-32.1,10.2-32.1&#10;&#9;&#9;&#9;C296.7,324.5,298.6,336.9,298.6,356.6z" style="fill: rgb(35, 31, 32); stroke: rgb(35, 31, 32);"/>
		<path class="st6" d="M382.6,356.6c0,19.7-1.9,34.5-10.2,34.5c-8.3,0-10.2-14.8-10.2-34.5s1.9-32.1,10.2-32.1&#10;&#9;&#9;&#9;C380.7,324.5,382.6,336.9,382.6,356.6z" style="fill: rgb(35, 31, 32); stroke: rgb(35, 31, 32);"/>
		<path class="st1" d="M287.9,326.4c-6.2,0-8.3,8-8.8,21.2c2.5,1.8,5.5,2.8,8.8,2.8c3.3,0,6.3-1.1,8.8-2.8&#10;&#9;&#9;&#9;C296.2,334.4,294.1,326.4,287.9,326.4z" style="fill: rgb(255, 255, 255);"/>
		<path class="st1" d="M373,326.4c-6.4,0-8.4,8.5-8.8,22.3c2.5,1.8,5.5,2.9,8.8,2.9c3.3,0,6.3-1.1,8.8-2.9&#10;&#9;&#9;&#9;C381.4,334.8,379.4,326.4,373,326.4z" style="fill: rgb(255, 255, 255);"/>
		<path class="st1" d="M164.7,141.9c-22.9,34.2-36.4,74.8-36.4,116.6c0,12,1.3,23,3.8,33.1C155.8,266.5,189.8,215,164.7,141.9z" style="fill: rgb(255, 255, 255);"/>
		<path class="st1" d="M492.5,137.9c-5.7,40.3-10.9,121.8,34.1,154.7c2.4-9.8,3.6-20.3,3.6-31.7C530.2,215.7,516.3,173,492.5,137.9z&#10;&#9;&#9;&#9;" style="fill: rgb(255, 255, 255);"/>
		<path d="M 428.199989 154.100006 A 98.400002 98.400002 0 0 1 329.799988 252.500008 A 98.400002 98.400002 0 0 1 231.399986 154.100006 A 98.400002 98.400002 0 0 1 329.799988 55.700005 A 98.400002 98.400002 0 0 1 428.199989 154.100006 Z" class="st1" style="fill: rgb(255, 255, 255);"/>
	</g>
</svg>